/* XPM */
static char *_a4974cffed74bf9c391afa87e3a5f21TyxkuryCdmFnRCFU[] = {
/* columns rows colors chars-per-pixel */
"64 64 2 1 ",
"  c #3F48CC",
". c #99D9EA",
/* pixels */
"                                                                ",
"                                                                ",
"  ............................................................  ",
"  ............................................................  ",
"  ............................................................  ",
"  ............................................................  ",
"  ............................................................  ",
"  ............................................................  ",
"  ............................................................  ",
"  ............................................................  ",
"  ............................................................  ",
"  ............................................................  ",
"  ............................................................  ",
"  ............................................................  ",
"  ............................................................  ",
"  .............   ............................................  ",
"  ............     ........................   ................  ",
"  ............      ......................     ...............  ",
"  ............       .....................     ...............  ",
"  ............        ....................     ...............  ",
"  ............        ....................     ...............  ",
"  ............         ...................     ...............  ",
"  ............          ..................     ...............  ",
"  ............           .................     ...............  ",
"  ............            ................     ...............  ",
"  ............     .       ...............     ...............  ",
"  ............     ..       ..............     ...............  ",
"  ............     ...       .............     ...............  ",
"  ............     ....      .............     ...............  ",
"  ............     .....      ............     ...............  ",
"  ............     ......      ...........     ...............  ",
"  ............     ......       ..........     ...............  ",
"  ............     .......       .........     ...............  ",
"  ............     ........       ........     ...............  ",
"  ............     .........       .......     ...............  ",
"  ............     ..........       ......     ...............  ",
"  ............     ...........      ......     ...............  ",
"  ............     ............      .....     ...............  ",
"  ............     .............      ....     ...............  ",
"  ............     .............       ...     ...............  ",
"  ............     ..............       ..     ...............  ",
"  ............     ...............       .     ...............  ",
"  ............     ................            ...............  ",
"  ............     .................           ...............  ",
"  ............     ..................          ...............  ",
"  ............     ...................         ...............  ",
"  ............     ....................        ...............  ",
"  ............     ....................        ...............  ",
"  ............     .....................       ...............  ",
"  ............     ......................      ...............  ",
"  ............     .......................     ...............  ",
"  .............   .........................   ................  ",
"  ............................................................  ",
"  ............................................................  ",
"  ............................................................  ",
"  ............................................................  ",
"  ............................................................  ",
"  ............................................................  ",
"  ............................................................  ",
"  ............................................................  ",
"  ............................................................  ",
"  ............................................................  ",
"                                                                ",
"                                                                "
};
