/* XPM */
static char *_47714f0eb724363ca98b2d774547952QYRNO5dqtN4jMEvO[] = {
/* columns rows colors chars-per-pixel */
"64 64 2 1 ",
"  c #22B14C",
". c #C9ED5A",
/* pixels */
"                                                                ",
"                                                                ",
"  ............................................................  ",
"  ............................................................  ",
"  ............................................................  ",
"  ............................................................  ",
"  ............................................................  ",
"  ............................................................  ",
"  ............................................................  ",
"  ............................................................  ",
"  .................                            ...............  ",
"  ................                              ..............  ",
"  ................                              ..............  ",
"  ................                              ..............  ",
"  ................                             ...............  ",
"  ................     .......................................  ",
"  ................     .......................................  ",
"  ................     .......................................  ",
"  ................     .......................................  ",
"  ................     .......................................  ",
"  ................     .......................................  ",
"  ................     .......................................  ",
"  ................     .......................................  ",
"  ................     .......................................  ",
"  ................     .......................................  ",
"  ................     .......................................  ",
"  ................     .......................................  ",
"  ................     .......................................  ",
"  ................                  ..........................  ",
"  ................                   .........................  ",
"  ................                   .........................  ",
"  ................                   .........................  ",
"  ................                  ..........................  ",
"  ................     .......................................  ",
"  ................     .......................................  ",
"  ................     .......................................  ",
"  ................     .......................................  ",
"  ................     .......................................  ",
"  ................     .......................................  ",
"  ................     .......................................  ",
"  ................     .......................................  ",
"  ................     .......................................  ",
"  ................     .......................................  ",
"  ................     .......................................  ",
"  ................     .......................................  ",
"  ................     .......................................  ",
"  ................                             ...............  ",
"  ................                              ..............  ",
"  ................                              ..............  ",
"  ................                              ..............  ",
"  .................                            ...............  ",
"  ............................................................  ",
"  ............................................................  ",
"  ............................................................  ",
"  ............................................................  ",
"  ............................................................  ",
"  ............................................................  ",
"  ............................................................  ",
"  ............................................................  ",
"  ............................................................  ",
"  ............................................................  ",
"  ............................................................  ",
"                                                                ",
"                                                                "
};
