/* XPM */
static char *_84f6c9bdba4407c9a2fd540f5e717705QTOUR9LZLG79z4X[] = {
/* columns rows colors chars-per-pixel */
"64 64 2 1 ",
"  c #ED1C24",
". c #FFAEC9",
/* pixels */
"                                                                ",
"                                                                ",
"  ............................................................  ",
"  ............................................................  ",
"  ............................................................  ",
"  ............................................................  ",
"  ............................................................  ",
"  ............................................................  ",
"  ............................................................  ",
"  ............................................................  ",
"  ...............                              ...............  ",
"  ..............                                ..............  ",
"  ..............                                ..............  ",
"  ..............                                ..............  ",
"  ..............                               ...............  ",
"  ..............     .........................................  ",
"  ..............     .........................................  ",
"  ..............     .........................................  ",
"  ..............     .........................................  ",
"  ..............     .........................................  ",
"  ..............     .........................................  ",
"  ..............     .........................................  ",
"  ..............     .........................................  ",
"  ..............     .........................................  ",
"  ..............     .........................................  ",
"  ..............     .........................................  ",
"  ..............     .........................................  ",
"  ..............     .........................................  ",
"  ..............                               ...............  ",
"  ..............                                ..............  ",
"  ..............                                ..............  ",
"  ..............                                ..............  ",
"  ...............                               ..............  ",
"  .........................................     ..............  ",
"  .........................................     ..............  ",
"  .........................................     ..............  ",
"  .........................................     ..............  ",
"  .........................................     ..............  ",
"  .........................................     ..............  ",
"  .........................................     ..............  ",
"  .........................................     ..............  ",
"  .........................................     ..............  ",
"  .........................................     ..............  ",
"  .........................................     ..............  ",
"  .........................................     ..............  ",
"  .........................................     ..............  ",
"  .........................................     ..............  ",
"  ...............                               ..............  ",
"  ..............                                ..............  ",
"  ..............                                ..............  ",
"  ..............                                ..............  ",
"  ...............                              ...............  ",
"  ............................................................  ",
"  ............................................................  ",
"  ............................................................  ",
"  ............................................................  ",
"  ............................................................  ",
"  ............................................................  ",
"  ............................................................  ",
"  ............................................................  ",
"  ............................................................  ",
"  ............................................................  ",
"                                                                ",
"                                                                "
};
