/* XPM */
static char *fe0d8cbe1e644093bd890299e3740521uKesFZXbLxEHH91O[] = {
/* columns rows colors chars-per-pixel */
"64 64 2 1 ",
"  c #FF7B0F",
". c #FFFF80",
/* pixels */
"                                                                ",
"                                                                ",
"  ............................................................  ",
"  ............................................................  ",
"  ............................................................  ",
"  ............................................................  ",
"  ............................................................  ",
"  ............................................................  ",
"  ............................................................  ",
"  ............................................................  ",
"  ............................................................  ",
"  ............................................................  ",
"  ............................................................  ",
"  ............................................................  ",
"  ............................................................  ",
"  ............................................................  ",
"  .......   ....................................   ...........  ",
"  ......     ..................................     ..........  ",
"  ......     ..................................     ..........  ",
"  ......      ................................      ..........  ",
"  .......     ................................     ...........  ",
"  .......      ...............................     ...........  ",
"  ........     ..............................      ...........  ",
"  ........      .............................     ............  ",
"  ........      ............................      ............  ",
"  .........     ............................     .............  ",
"  .........      ...........................     .............  ",
"  ..........     ..........................      .............  ",
"  ..........      .........................     ..............  ",
"  ...........     ........................      ..............  ",
"  ...........      .......................     ...............  ",
"  ............     ......................      ...............  ",
"  ............      .....................     ................  ",
"  ............      .....................     ................  ",
"  .............     .........   ........      ................  ",
"  .............      .......     .......     .................  ",
"  ..............     .......     ......      .................  ",
"  ..............      .....       .....     ..................  ",
"  ...............     .....        ....     ..................  ",
"  ...............      ...         ...      ..................  ",
"  ................     ..           ..     ...................  ",
"  ................      .                  ...................  ",
"  .................           .           ....................  ",
"  .................           ..          ....................  ",
"  .................          ....        .....................  ",
"  ..................         ....        .....................  ",
"  ..................        ......       .....................  ",
"  ...................      ........     ......................  ",
"  ...................      ........     ......................  ",
"  ....................    ..........   .......................  ",
"  ............................................................  ",
"  ............................................................  ",
"  ............................................................  ",
"  ............................................................  ",
"  ............................................................  ",
"  ............................................................  ",
"  ............................................................  ",
"  ............................................................  ",
"  ............................................................  ",
"  ............................................................  ",
"  ............................................................  ",
"  ............................................................  ",
"                                                                ",
"                                                                "
};
